<?xml version="1.0" encoding="UTF-8" standalone="no"?><!DOCTYPE svg PUBLIC "-//W3C//DTD SVG 1.1//EN" "http://www.w3.org/Graphics/SVG/1.1/DTD/svg11.dtd"><svg width="100%" height="100%" viewBox="0 0 1437 436" version="1.1" xmlns="http://www.w3.org/2000/svg" xmlns:xlink="http://www.w3.org/1999/xlink" xml:space="preserve" xmlns:serif="http://www.serif.com/" style="fill-rule:evenodd;clip-rule:evenodd;stroke-linejoin:round;stroke-miterlimit:2;"><path d="M564.866,287.218c6.294,8.222 15.141,12.329 26.55,12.329c5.534,0 10.4,-0.835 14.597,-2.513c4.191,-1.678 8.215,-4.281 12.078,-7.803l0,-67.444c-3.863,-3.356 -7.928,-5.787 -12.206,-7.297c-4.278,-1.509 -9.1,-2.265 -14.469,-2.265c-11.241,0 -20.05,3.987 -26.425,11.953c-6.378,7.972 -9.562,18.162 -9.562,30.575c0,13.425 3.146,24.247 9.437,32.465Zm77.634,-147.721l0,177.412l-13.84,0l-4.781,-9.309c-5.032,4.028 -10.613,7.131 -16.735,9.309c-6.125,2.181 -11.369,3.272 -15.728,3.272c-12.419,0 -23.194,-2.684 -32.337,-8.05c-9.144,-5.369 -16.15,-12.963 -21.013,-22.775c-4.869,-9.816 -7.297,-21.263 -7.297,-34.35c0,-12.584 2.516,-23.656 7.547,-33.219c5.034,-9.562 12.163,-16.987 21.391,-22.269c9.225,-5.287 19.881,-7.928 31.959,-7.928c3.525,0 7.678,0.672 12.459,2.013c4.782,1.344 9.435,3.272 13.966,5.787l0,-57.375l24.409,-2.518Z" style="fill:#30313d;fill-rule:nonzero;"/><path d="M754.86,287.218c6.628,-8.218 10.022,-18.537 10.194,-30.953c0,-13.087 -3.194,-23.693 -9.566,-31.837c-6.378,-8.135 -15.184,-12.203 -26.422,-12.203c-11.072,0 -19.922,4.112 -26.55,12.331c-6.628,8.222 -10.025,18.541 -10.191,30.95c0,13.087 3.185,23.7 9.563,31.837c6.375,8.138 15.181,12.204 26.422,12.204c11.072,0 19.922,-4.107 26.55,-12.329Zm27.306,2.266c-5.034,9.731 -12.206,17.278 -21.519,22.647c-9.309,5.366 -20.172,8.05 -32.587,8.05c-12.247,0 -22.944,-2.684 -32.088,-8.05c-9.143,-5.369 -16.147,-12.916 -21.012,-22.647c-4.866,-9.731 -7.297,-20.972 -7.297,-33.722c0,-12.584 2.519,-23.74 7.55,-33.469c5.034,-9.731 12.162,-17.281 21.39,-22.65c9.226,-5.368 20.047,-8.053 32.463,-8.053c12.244,0 22.938,2.685 32.088,8.053c9.143,5.369 16.187,12.919 21.137,22.65c4.95,9.729 7.425,20.972 7.425,33.719c0,12.581 -2.519,23.741 -7.55,33.472Z" style="fill:#30313d;fill-rule:nonzero;"/><path d="M880.06,297.034c4.187,-1.678 8.218,-4.281 12.078,-7.803l0,-67.444c-3.86,-3.356 -7.928,-5.787 -12.203,-7.297c-4.281,-1.509 -9.103,-2.265 -14.472,-2.265c-11.244,0 -20.05,3.987 -26.422,11.953c-6.378,7.972 -9.566,18.162 -9.566,30.575c0,13.425 3.147,24.247 9.438,32.465c6.291,8.222 15.137,12.329 26.55,12.329c5.534,0 10.4,-0.835 14.597,-2.513Zm36.487,-102.172l0,132.869c0,9.059 -2.309,17.153 -6.919,24.284c-4.618,7.128 -11.287,12.71 -20.009,16.735c-8.725,4.025 -19.209,6.04 -31.453,6.04c-5.875,0 -13.256,-1.131 -22.147,-3.397c-8.894,-2.265 -15.941,-5.159 -21.144,-8.681l7.303,-17.365c8.388,3.69 14.722,6.246 18.997,7.675c4.279,1.425 9.691,2.14 16.235,2.14c10.4,0 18.784,-2.39 25.162,-7.172c6.375,-4.784 9.566,-11.618 9.566,-20.512l0,-15.85c-4.528,2.681 -9.228,4.778 -14.094,6.29c-4.866,1.51 -9.059,2.263 -12.581,2.263c-12.419,0 -23.197,-2.684 -32.338,-8.05c-9.146,-5.369 -16.15,-12.963 -21.015,-22.775c-4.866,-9.816 -7.297,-21.263 -7.297,-34.35c0,-12.584 2.516,-23.656 7.553,-33.219c5.028,-9.562 12.159,-16.987 21.387,-22.269c9.225,-5.287 19.882,-7.928 31.96,-7.928c4.359,0 9.562,1.007 15.603,3.019c6.041,2.013 11.575,4.95 16.609,8.809l4.782,-8.556l13.84,0Z" style="fill:#30313d;fill-rule:nonzero;"/><path d="M1026.52,287.593c6.375,-7.965 9.563,-18.156 9.563,-30.575c0,-13.418 -3.144,-24.24 -9.438,-32.462c-6.29,-8.219 -15.14,-12.331 -26.547,-12.331c-9.903,0 -18.29,2.937 -25.165,8.806l0,70.212c7.043,5.538 15.434,8.304 25.165,8.304c11.235,0 20.044,-3.982 26.422,-11.954Zm5.913,-87.95c9.143,5.369 16.143,12.96 21.012,22.775c4.866,9.813 7.3,21.263 7.3,34.35c0,12.582 -2.519,23.654 -7.55,33.219c-5.031,9.56 -12.165,16.985 -21.39,22.269c-9.229,5.284 -19.882,7.925 -31.96,7.925c-4.197,0 -9.103,-0.881 -14.722,-2.641c-5.622,-1.762 -10.947,-4.406 -15.981,-7.925l-4.781,7.294l-13.588,0l0,-174.894l24.16,-2.768l0,59.89c4.528,-2.347 9.015,-4.19 13.462,-5.534c4.444,-1.341 8.344,-2.013 11.703,-2.013c12.41,0 23.191,2.685 32.335,8.053Z" style="fill:#f3724c;fill-rule:nonzero;"/><path d="M1083.39,316.909l0,-122.047l24.409,0l0,122.047l-24.409,0Zm11.825,-143.944c-4.194,0 -7.716,-1.465 -10.569,-4.403c-2.853,-2.931 -4.278,-6.5 -4.278,-10.694c0,-4.19 1.425,-7.759 4.278,-10.693c2.853,-2.935 6.375,-4.407 10.569,-4.407c4.194,0 7.803,1.472 10.822,4.407c3.022,2.934 4.528,6.503 4.528,10.693c0,4.194 -1.506,7.763 -4.528,10.694c-3.019,2.938 -6.628,4.403 -10.822,4.403Z" style="fill:#f3724c;fill-rule:nonzero;"/><path d="M1216.26,287.593c6.375,-7.965 9.562,-18.156 9.562,-30.575c0,-13.418 -3.147,-24.24 -9.437,-32.462c-6.291,-8.219 -15.141,-12.331 -26.547,-12.331c-9.903,0 -18.291,2.937 -25.166,8.806l0,70.212c7.044,5.538 15.431,8.304 25.166,8.304c11.234,0 20.044,-3.982 26.422,-11.954Zm5.912,-87.95c9.144,5.369 16.144,12.96 21.013,22.775c4.862,9.813 7.3,21.263 7.3,34.35c0,12.582 -2.519,23.654 -7.55,33.219c-5.035,9.56 -12.166,16.985 -21.391,22.269c-9.228,5.284 -19.881,7.925 -31.959,7.925c-4.197,0 -9.107,-0.881 -14.722,-2.641c-5.622,-1.762 -10.947,-4.406 -15.981,-7.925l-4.782,7.294l-13.59,0l0,-174.894l24.162,-2.768l0,59.89c4.528,-2.347 9.016,-4.19 13.46,-5.534c4.443,-1.341 8.343,-2.013 11.706,-2.013c12.409,0 23.187,2.685 32.334,8.053Z" style="fill:#f3724c;fill-rule:nonzero;"/><path d="M1275.65,316.909l0,-174.894l24.16,-2.768l0,177.662l-24.16,0Z" style="fill:#f3724c;fill-rule:nonzero;"/><path d="M1350.64,244.94l62.659,0c-3.187,-21.809 -13.425,-32.715 -30.703,-32.715c-9.228,0 -16.569,2.893 -22.019,8.681c-5.453,5.791 -8.765,13.803 -9.937,24.034Zm86.065,16.357l-86.571,0c1.009,11.915 4.821,21.306 11.453,28.187c6.625,6.881 16.481,10.316 29.565,10.316c6.375,0 11.957,-0.797 16.738,-2.391c4.781,-1.594 11.45,-4.403 20.006,-8.431l7.547,17.615c-14.762,8.894 -29.528,13.338 -44.291,13.338c-21.306,0 -37.662,-5.788 -49.071,-17.363c-11.41,-11.578 -17.11,-27.178 -17.11,-46.806c0,-12.584 2.347,-23.74 7.047,-33.469c4.694,-9.731 11.45,-17.281 20.256,-22.65c8.807,-5.368 19.166,-8.053 31.078,-8.053c17.616,0 30.91,5.913 39.888,17.741c8.972,11.825 13.465,26.969 13.465,45.422l0,6.544Z" style="fill:#f3724c;fill-rule:nonzero;"/><path d="M38.116,110.931c-20.928,29.744 -41.816,65.866 -37.559,122.716c5.531,73.868 42.75,177.378 127.95,189.515c41.231,5.872 80.45,6.991 120.143,6.588c48.432,-0.491 91.31,-5.416 129.444,-41.197c63.688,-59.756 101.406,-190.897 50.406,-265.385c-9.781,-14.281 -25.496,-30.768 -37.821,-43.431c-42.519,-43.69 -85.582,-73.753 -142.872,-78.978c-26.632,-2.428 -52.335,0.975 -79.325,10.125c-57.613,19.534 -94.591,49.203 -130.366,100.047Z" style="fill:#f3724c;"/><path d="M371.125,93.887c4.316,0.663 6.7,4.278 10.691,17.513c14.266,47.337 15.894,99.537 -45.862,115.556c-15.097,3.916 -27.804,0.75 -28.01,0.994c-1.828,2.147 -2.619,4.775 -2.831,7.662c-0.172,2.356 0.047,4.885 0.391,7.463c7.309,54.272 8.134,43.847 2.668,102.8c-4.147,17.765 -18.562,83.95 -27.787,83.95l-73.466,0c-1.884,-3.385 -1.122,-9.519 -2.725,-15.732c-4.406,-17.046 -16.865,-23.581 -33.169,-15.059c-11.331,5.928 -10.668,31.184 -17.484,31.184l-39.656,0c-5.185,0 -12.681,-31.078 -17.513,-48.875c-4.165,-15.331 -2.556,-25.081 -9.075,-27.096c-6.384,-1.972 -14.268,-16.082 -16.897,-22.691c-5.768,-14.516 -1.734,-32.784 2.991,-41.319c4.647,-8.372 4.322,-6.762 6.275,1.15c3.703,14.997 12.631,45.65 25.275,20.344c6.925,-13.866 24.691,-24.981 45.016,-30.606c20.99,-5.797 22.931,0.718 15.081,-14.538c-5.819,-11.306 -10.313,-15.847 -13.269,-26.244c-4.594,-16.165 -5.472,-38.34 -1.812,-59.118c9.084,-51.578 56.809,-88.069 109.397,-85.041c21.546,1.244 25.981,13.856 27.184,13.669c29.925,-4.606 82.637,-16.266 84.587,-15.966Z" style="fill:#fff;"/><path d="M309.9,274.693c2.916,21.929 2.31,27.594 -1.728,71.182c-3.856,16.528 -16.597,74.934 -25.784,83.012c-1.95,0.013 -7.072,-1.153 -5.916,-4.209c0.363,-0.941 0.913,-2.378 0.947,-2.478c0.844,-2.457 8.6,-23.272 11.263,-51.503c3.24,-34.341 0.668,-78.607 -8.516,-95.463l-3.45,-8.1c1.728,0.472 21.159,-2.05 24.609,-2.05c4.232,0 6.938,3.678 8.575,9.609Z" style="fill:#e0dad5;"/><path d="M229.079,429.825l-21.038,0c-0.55,-0.232 -1.053,-0.5 -1.506,-0.813c-1.4,-3.5 -0.86,-9.175 -2.341,-14.919c-3.737,-14.468 -17.925,-20.284 -29.54,-16.734c-12.738,3.894 -22.832,17.934 -23.022,17.325c-0.178,-0.584 -0.047,-4.5 0.059,-5.497c0.978,-9.294 6.284,-18.344 13.847,-24.569c15.366,-12.665 40.125,-10.009 52.084,5.832c6.657,8.812 9.091,21.518 10.772,32.572c0.272,1.787 0.813,4.856 0.685,6.803Z" style="fill:#e0dad5;"/><path d="M289.863,113.312c6.931,9.553 12.559,20.622 13.406,31.41c2.031,26.056 -19.794,33.659 -39.062,41.443c-9.75,3.938 -13.907,9.166 -14.45,14.053c-1.478,13.254 15.047,45.35 10.231,78.582c-4.569,31.481 -80.494,5.19 -101.616,-22.003c-9.375,-12.072 -13.025,-44.547 -9.712,-66.56c3.737,-24.834 16.969,-50.684 36.994,-68.019c28.546,-24.712 68.234,-34.662 91.018,-21.368c4.147,2.418 10.191,8.328 13.191,12.462Z" style="fill:#e0dad5;"/><path d="M288.738,132.94c3.203,0.969 5.016,4.35 4.047,7.55c-0.966,3.203 -4.347,5.016 -7.55,4.047c-0.688,-0.206 -1.328,-0.347 -1.913,-0.415l-0.025,-0.004l0,0.004c-2.193,-0.269 -4.037,0.262 -5.434,1.3c-1.522,1.121 -2.644,2.865 -3.247,4.865l-0.006,0.019l0.006,0.003c-0.187,0.634 -0.331,1.275 -0.406,1.9c-0.391,3.319 -3.403,5.694 -6.722,5.303c-3.319,-0.394 -5.694,-3.403 -5.3,-6.722c0.166,-1.381 0.45,-2.715 0.831,-3.984l0.006,0.003c1.338,-4.425 3.975,-8.378 7.644,-11.094c3.8,-2.815 8.6,-4.287 14.097,-3.618l0,0.003c1.309,0.162 2.641,0.437 3.972,0.84Z" style="fill:#30313d;"/><path d="M270.125,214.425c-2.587,-2.613 -2.565,-6.832 0.044,-9.416c2.61,-2.587 6.828,-2.569 9.416,0.044c9.153,9.24 19.462,13.944 29.687,15.487c12.538,1.897 25.097,-0.862 35.372,-5.812c11.035,-5.316 20.791,-12.766 27.844,-22.478c6.241,-8.6 10.406,-19.06 11.497,-31.482c0.775,-8.862 -0.253,-19.45 -2.878,-30.275c-0.513,-2.109 -1.082,-4.228 -1.716,-6.34c-0.669,0.119 -1.372,0.219 -2.097,0.3c-18.009,1.95 -29.681,-5.622 -32.653,-20.55c-1.644,0.456 -3.472,0.953 -5.572,1.515c-5.228,1.391 -19.165,4.66 -31.125,6.891c-8.097,1.513 -15.54,2.584 -19.49,2.409c-4.179,-0.187 -5.935,-2.178 -8.388,-4.965c-1.772,-2.019 -4.428,-5.031 -11.031,-6.797c-12.056,-3.222 -25.241,-2.347 -38.166,1.459c-14.459,4.26 -28.534,12.16 -40.397,22.132c-5.928,4.981 -11.272,10.45 -15.803,16.2c-4.378,5.556 -8.022,11.412 -10.722,17.381c-8.075,17.84 -11.35,39.74 -9.306,59.759c1.863,18.235 8.116,34.694 19.144,44.597c3.515,3.163 10.612,6.794 19.431,10.281c9.75,3.863 21.288,7.4 32.388,9.888c6.587,1.475 13.065,2.537 18.359,2.425c3.828,-0.081 6.697,-0.703 7.762,-2.206c3.066,-4.325 4.063,-11.919 3.491,-21.175c-0.691,-11.204 -3.741,-24.438 -8.319,-37.379c-3.943,-11.137 -9.553,-20.896 -15.45,-29.215c-5.962,-8.416 -12.3,-15.447 -17.543,-20.972c-2.516,-2.672 -2.391,-6.881 0.281,-9.4c2.669,-2.519 6.881,-2.394 9.397,0.278c5.528,5.825 12.237,13.281 18.703,22.4c6.531,9.213 12.75,20.044 17.14,32.463c4.732,13.365 7.963,27.184 8.916,39.265c1.275,0.031 2.559,0.047 3.85,0.047c10.45,0 20.384,-1.072 29.359,-3.003l-0.665,-3.891c-0.291,-1.69 -0.616,-3.462 -0.935,-5.056c-0.687,-3.459 1.557,-6.825 5.019,-7.512c3.46,-0.688 6.825,1.556 7.516,5.015c0.244,1.228 0.603,3.219 0.981,5.406c0.3,1.738 0.772,4.635 1.166,7.138c4.647,29.406 4.622,61.659 -0.232,92.509c-4.6,29.241 -13.54,57.278 -26.937,80.532c-1.034,2.143 -3.225,3.621 -5.763,3.621l-28.325,0l0,-0.018c-0.868,0 -1.753,-0.178 -2.596,-0.553c-3.21,-1.435 -4.654,-5.204 -3.222,-8.413c3.481,-7.816 5.715,-16.262 6.647,-24.756c0.934,-8.51 0.559,-17.053 -1.163,-25.031c-0.741,-3.447 1.447,-6.844 4.894,-7.588c3.447,-0.744 6.847,1.447 7.587,4.891c2.01,9.29 2.441,19.215 1.363,29.075c-0.728,6.622 -2.147,13.228 -4.238,19.612l15.344,0c11.744,-21.331 19.653,-46.775 23.828,-73.319c3.638,-23.112 4.447,-47.031 2.503,-69.812c-11.487,2.403 -24.387,3.244 -37.353,2.691c-0.99,3.771 -2.44,7.103 -4.4,9.862c-3.872,5.456 -10.409,7.631 -18.297,7.797c-6.415,0.137 -13.965,-1.084 -21.553,-2.781c-11.894,-2.669 -24.137,-6.413 -34.378,-10.466c-4.153,-1.641 -8.028,-3.356 -11.478,-5.103c-3.356,0.675 -9.944,1.969 -11.672,2.237c-14.172,2.207 -43.85,6.832 -63.319,44.591c-1.612,3.131 -5.459,4.359 -8.587,2.747c-0.791,-0.409 -1.46,-0.953 -1.994,-1.6l-0.003,0.003c-5.45,-6.597 -10.525,-13.116 -13.681,-21.772c-0.925,-2.534 -1.666,-5.215 -2.182,-8.084c-2.193,7.215 -2.5,14.778 -1.062,22c2.256,11.334 8.828,21.806 19.172,28.728l0.962,0.628l0.007,-0.012l0.909,0.578c1.819,1.084 2.9,2.94 3.075,4.9c0.859,8.862 2.866,18.959 6.237,30.484c3.107,10.628 7.391,22.478 13.01,35.703l31.081,0c2.35,-16.231 10.05,-26.822 19.272,-31.847c4.469,-2.437 9.3,-3.581 14.091,-3.447c4.818,0.138 9.565,1.554 13.834,4.216c8.603,5.366 15.35,15.828 16.744,31.078l18.515,0c3.528,0 6.391,2.863 6.391,6.391c0,3.528 -2.863,6.39 -6.391,6.39l-24.618,0l0,-0.025l-0.029,0c-3.512,-0.012 -6.35,-2.878 -6.337,-6.39c0.097,-13.772 -4.681,-22.66 -11.013,-26.613c-2.35,-1.462 -4.906,-2.24 -7.446,-2.312c-2.572,-0.072 -5.197,0.556 -7.65,1.894c-6.738,3.678 -12.288,12.565 -13.213,27.015l0,0.041c0,3.528 -2.862,6.39 -6.391,6.39l-41.021,0l0,-0.018c-2.457,-0.003 -4.797,-1.432 -5.841,-3.828c-6.65,-15.254 -11.647,-28.885 -15.219,-41.097c-3.222,-11.013 -5.284,-20.875 -6.353,-29.738c-13.112,-8.887 -21.441,-22.212 -24.309,-36.612c-2.897,-14.522 -0.238,-30.175 8.653,-43.497c1.162,-1.744 2.353,-3.347 3.55,-4.794c1.231,-1.491 2.584,-2.956 4.044,-4.391l0.003,0.004c1.459,-1.435 3.581,-2.141 5.737,-1.7c3.444,0.703 5.669,4.068 4.966,7.515c-2.341,11.3 -1.616,19.472 0.803,26.106c1.391,3.816 3.419,7.275 5.784,10.613c21.76,-34.938 51.453,-40.244 66.882,-42.663c-12.022,-12.331 -18.841,-30.693 -20.872,-50.596c-2.269,-22.229 1.409,-46.638 10.447,-66.61c3.131,-6.915 7.346,-13.694 12.406,-20.115c5.134,-6.519 11.115,-12.654 17.684,-18.175c13.197,-11.094 28.922,-19.897 45.144,-24.679c15.178,-4.468 30.844,-5.443 45.412,-1.55c10.472,2.8 14.738,7.641 17.591,10.882c0.106,0.122 0.353,0.415 0.534,0.409c3.241,-0.159 8.76,-1.034 14.869,-2.175c11.788,-2.2 25.203,-5.337 30.15,-6.656c3.538,-0.944 7.656,-2.113 11.335,-3.16c19.171,-5.462 27.281,-7.771 33.678,3.566c5.987,10.609 10.528,22.581 13.387,34.369c2.963,12.228 4.116,24.325 3.213,34.597c-1.313,14.965 -6.378,27.631 -13.978,38.1c-8.425,11.609 -19.932,20.434 -32.866,26.668c-12.391,5.969 -27.663,9.279 -43.081,6.947c-12.916,-1.95 -25.847,-7.803 -37.182,-19.24Z" style="fill:#30313d;"/><path d="M312.194,190.44c2.85,-0.212 5.331,1.928 5.541,4.775c0.212,2.847 -1.928,5.328 -4.775,5.541c-2.85,0.209 -5.331,-1.931 -5.541,-4.778c-0.209,-2.847 1.928,-5.328 4.775,-5.538Z" style="fill:#30313d;"/><path d="M348.857,176.065c2.847,-0.209 5.328,1.928 5.537,4.775c0.21,2.85 -1.928,5.328 -4.775,5.541c-2.847,0.209 -5.328,-1.928 -5.54,-4.775c-0.21,-2.85 1.931,-5.331 4.778,-5.541Z" style="fill:#30313d;"/><path d="M337.572,197.84c2.847,-0.209 5.328,1.932 5.541,4.778c0.209,2.847 -1.931,5.329 -4.778,5.538c-2.847,0.209 -5.328,-1.928 -5.538,-4.775c-0.212,-2.847 1.928,-5.328 4.775,-5.541Z" style="fill:#30313d;"/></svg>